<svg width="50" height="50" viewBox="0 0 50 50" fill="none" xmlns="http://www.w3.org/2000/svg">
<path d="M49.8226 14.7226C49.7886 13.2684 49.5922 11.8225 49.2369 10.4119C48.6141 7.78337 47.1917 5.41261 45.1654 3.62617C43.0415 1.78701 40.4031 0.646075 37.6083 0.358313C36.1856 0.187901 34.7552 0.0901554 33.3226 0.0654558C30.494 0.00117009 27.6797 0.00117009 24.8654 0.00117009C21.5404 0.00117009 18.2154 -0.0309728 14.8833 0.140456C13.6228 0.18474 12.3678 0.328039 11.1297 0.569027C8.41147 1.07518 5.91641 2.41004 3.98688 4.39046C2.01716 6.51424 0.763075 9.20227 0.401163 12.0762C0.178122 13.6844 0.0671407 15.3061 0.0690205 16.9297C0.0237824 19.5797 0.00116336 22.2321 0.00116336 24.8869C0.00116336 28.5726 -0.0416938 32.269 0.190449 35.9547C0.275857 37.5316 0.559026 39.0914 1.03331 40.5976C1.97305 43.6219 4.01181 46.1844 6.74759 47.7797C8.80107 48.9516 11.1007 49.6256 13.4619 49.7476C15.0833 49.869 16.7154 49.9476 18.344 49.9547C23.644 49.9869 28.9476 50.0583 34.2512 49.8869C35.9224 49.8683 37.5877 49.684 39.2226 49.3369C41.9332 48.7668 44.3944 47.3547 46.2545 45.3022C48.1145 43.2497 49.2784 40.6618 49.5797 37.9083C49.7991 36.2997 49.9101 34.6782 49.9119 33.0547C49.9619 30.3762 49.969 27.6976 50.0083 23.8476C49.9583 21.5762 49.9047 18.1476 49.8226 14.7226ZM24.9726 37.8262C22.4356 37.8241 19.9563 37.0698 17.848 35.6587C15.7397 34.2476 14.0971 32.2431 13.1278 29.8986C12.1586 27.5541 11.9063 24.9749 12.4028 22.487C12.8993 19.9991 14.1223 17.7143 15.9172 15.9214C17.7121 14.1285 19.9983 12.908 22.4867 12.4143C24.9751 11.9206 27.5541 12.1758 29.8975 13.1476C32.241 14.1194 34.2436 15.7643 35.6523 17.8741C37.0611 19.984 37.8126 22.4642 37.8119 25.0012C37.8128 26.6868 37.4813 28.3561 36.8362 29.9135C36.1911 31.4709 35.2452 32.8857 34.0526 34.077C32.86 35.2683 31.4441 36.2126 29.886 36.8559C28.3279 37.4993 26.6583 37.829 24.9726 37.8262ZM39.5762 14.969C38.7193 14.9719 37.8809 14.7203 37.1671 14.2462C36.4533 13.7722 35.8963 13.0969 35.5666 12.306C35.2369 11.5151 35.1493 10.6442 35.315 9.80347C35.4807 8.96277 35.8922 8.19016 36.4973 7.58352C37.1025 6.97687 37.8741 6.56347 38.7143 6.39569C39.5546 6.22792 40.4258 6.31331 41.2175 6.64105C42.0092 6.9688 42.6858 7.52414 43.1617 8.23675C43.6375 8.94936 43.8911 9.78716 43.8904 10.644C43.882 11.7853 43.4247 12.8774 42.6173 13.6841C41.8099 14.4908 40.7175 14.9473 39.5762 14.9547V14.969Z" fill="white"/>
</svg>
