<svg width="16" height="18" viewBox="0 0 16 18" fill="none" xmlns="http://www.w3.org/2000/svg">
<path d="M2.35847 10.6775L3.08707 10.4997L2.35847 10.6775ZM2.35847 6.26135L1.62986 6.08351L2.35847 6.26135ZM14.8183 6.26136L15.5469 6.08351V6.08351L14.8183 6.26136ZM14.8183 10.6775L15.5469 10.8554L14.8183 10.6775ZM10.7042 14.4973L10.5393 13.7656L10.7042 14.4973ZM6.47253 14.4973L6.3076 15.2289H6.3076L6.47253 14.4973ZM6.47253 2.44158L6.63745 3.17322V3.17322L6.47253 2.44158ZM10.7042 2.44158L10.8692 1.70994V1.70994L10.7042 2.44158ZM6.09985 14.4133L6.26477 13.6816L6.26477 13.6816L6.09985 14.4133ZM11.0769 14.4133L11.2418 15.1449L11.0769 14.4133ZM11.0769 2.52558L10.912 3.25723L11.0769 2.52558ZM6.09985 2.52559L5.93492 1.79394V1.79394L6.09985 2.52559ZM3.06129 3.67589L2.32354 3.81091V3.81091L3.06129 3.67589ZM2.43552 4.42279C2.51009 4.83024 2.90084 5.10009 3.30829 5.02552C3.71573 4.95095 3.98558 4.5602 3.91102 4.15276L2.43552 4.42279ZM1.0488 0.761674C0.641036 0.688877 0.251463 0.960423 0.178666 1.36819C0.105869 1.77596 0.377415 2.16553 0.785182 2.23833L1.0488 0.761674ZM5.52942 14.747C5.58196 14.86 5.60252 14.9875 5.58741 15.114L7.0768 15.292C7.12486 14.8901 7.0603 14.4816 6.88951 14.1144L5.52942 14.747ZM5.58741 15.114C5.5723 15.2404 5.52255 15.3574 5.44675 15.4517L6.61569 16.3917C6.86966 16.0758 7.02874 15.6941 7.0768 15.292L5.58741 15.114ZM5.44675 15.4517C5.37111 15.5457 5.27328 15.6127 5.16662 15.6479L5.63668 17.0723C6.02245 16.945 6.36155 16.7077 6.61569 16.3917L5.44675 15.4517ZM5.16662 15.6479C5.06016 15.683 4.94687 15.6859 4.83918 15.6566L4.44451 17.1037C4.83668 17.2107 5.25071 17.1997 5.63668 17.0723L5.16662 15.6479ZM4.83918 15.6566C4.7313 15.6272 4.63081 15.5657 4.55104 15.4763L3.43155 16.4747C3.70152 16.7774 4.05252 16.9968 4.44451 17.1037L4.83918 15.6566ZM4.55104 15.4763C4.4711 15.3866 4.41575 15.2729 4.3944 15.1476L2.91572 15.3996C2.98375 15.7988 3.16176 16.1721 3.43155 16.4747L4.55104 15.4763ZM4.3944 15.1476C4.37305 15.0223 4.38716 14.8937 4.4342 14.7776L3.04406 14.2141C2.89194 14.5894 2.84771 15.0005 2.91572 15.3996L4.3944 15.1476ZM4.4342 14.7776C4.48118 14.6617 4.55809 14.5653 4.65282 14.4977L3.78117 13.2769C3.45098 13.5127 3.19624 13.8387 3.04406 14.2141L4.4342 14.7776ZM12.4412 14.6089C12.5303 14.6869 12.5982 14.7921 12.634 14.9134L14.0728 14.4895C13.958 14.0999 13.7361 13.7493 13.4303 13.4811L12.4412 14.6089ZM12.634 14.9134C12.6698 15.0349 12.6709 15.1649 12.6373 15.2872L14.0835 15.6854C14.1913 15.2938 14.1876 14.8791 14.0728 14.4895L12.634 14.9134ZM12.6373 15.2872C12.6037 15.4093 12.5375 15.5159 12.4497 15.5958L13.4592 16.7052C13.7601 16.4315 13.9757 16.077 14.0835 15.6854L12.6373 15.2872ZM12.4497 15.5958C12.3621 15.6755 12.2567 15.7255 12.1467 15.743L12.3819 17.2244C12.7845 17.1605 13.1582 16.9792 13.4592 16.7052L12.4497 15.5958ZM12.1467 15.743C12.0368 15.7604 11.9239 15.7452 11.8205 15.698L11.197 17.0623C11.5677 17.2317 11.9792 17.2884 12.3819 17.2244L12.1467 15.743ZM11.8205 15.698C11.7168 15.6506 11.6253 15.5721 11.5591 15.4686L10.2954 16.2768C10.5145 16.6193 10.8266 16.893 11.197 17.0623L11.8205 15.698ZM11.5591 15.4686C11.4928 15.3649 11.4556 15.2417 11.4542 15.1138L9.95429 15.1307C9.95885 15.5367 10.0765 15.9345 10.2954 16.2768L11.5591 15.4686ZM11.4542 15.1138C11.4528 14.9859 11.4872 14.8617 11.5513 14.7562L10.2695 13.9771C10.0584 14.3243 9.94973 14.7246 9.95429 15.1307L11.4542 15.1138ZM6.26477 3.25723L6.63745 3.17322L6.3076 1.70994L5.93492 1.79394L6.26477 3.25723ZM10.5393 3.17322L10.912 3.25723L11.2418 1.79394L10.8692 1.70994L10.5393 3.17322ZM10.912 13.6816L10.5393 13.7656L10.8692 15.2289L11.2418 15.1449L10.912 13.6816ZM6.63745 13.7656L6.26477 13.6816L5.93492 15.1449L6.3076 15.2289L6.63745 13.7656ZM3.08707 10.4997C2.76178 9.167 2.76178 7.77187 3.08707 6.4392L1.62986 6.08351C1.24752 7.64987 1.24752 9.289 1.62986 10.8554L3.08707 10.4997ZM14.0897 6.4392C14.415 7.77187 14.415 9.167 14.0897 10.4997L15.5469 10.8554C15.9292 9.28899 15.9292 7.64987 15.5469 6.08351L14.0897 6.4392ZM10.5393 13.7656C9.25384 14.0554 7.92293 14.0554 6.63745 13.7656L6.3076 15.2289C7.81025 15.5677 9.36651 15.5677 10.8692 15.2289L10.5393 13.7656ZM6.63745 3.17322C7.92293 2.88345 9.25384 2.88345 10.5393 3.17322L10.8692 1.70994C9.36652 1.37121 7.81025 1.37121 6.3076 1.70994L6.63745 3.17322ZM6.26477 13.6816C4.7173 13.3328 3.47956 12.1076 3.08707 10.4997L1.62986 10.8554C2.15285 12.998 3.8134 14.6667 5.93493 15.1449L6.26477 13.6816ZM11.2418 15.1449C13.3634 14.6667 15.0239 12.998 15.5469 10.8554L14.0897 10.4997C13.6972 12.1076 12.4595 13.3328 10.912 13.6816L11.2418 15.1449ZM10.912 3.25723C12.4595 3.60605 13.6972 4.83125 14.0897 6.4392L15.5469 6.08351C15.0239 3.94091 13.3634 2.27217 11.2418 1.79394L10.912 3.25723ZM5.93492 1.79394C3.8134 2.27217 2.15285 3.94091 1.62986 6.08351L3.08707 6.4392C3.47956 4.83125 4.7173 3.60605 6.26477 3.25723L5.93492 1.79394ZM2.72201 12.0072H14.4548V10.5072H2.72201V12.0072ZM2.32354 3.81091L2.43552 4.42279L3.91102 4.15276L3.79903 3.54087L2.32354 3.81091ZM0.785182 2.23833C1.55141 2.37512 2.17376 2.9925 2.32354 3.81091L3.79903 3.54087C3.54077 2.12969 2.45373 1.01249 1.0488 0.761674L0.785182 2.23833Z" fill="#363853"/>
</svg>
