<svg width="14" height="14" viewBox="0 0 14 14" fill="none" xmlns="http://www.w3.org/2000/svg">
<path fill-rule="evenodd" clip-rule="evenodd" d="M13.4733 12.5266L10.9999 10.0733C12.9934 7.58771 12.6965 3.97746 10.3236 1.85104C7.95079 -0.275377 4.32971 -0.176291 2.07671 2.07671C-0.176291 4.32971 -0.275377 7.95079 1.85104 10.3236C3.97746 12.6965 7.58771 12.9934 10.0733 10.9999L12.5266 13.4533C12.6518 13.5795 12.8222 13.6505 12.9999 13.6505C13.1777 13.6505 13.3481 13.5795 13.4733 13.4533C13.723 13.1949 13.723 12.785 13.4733 12.5266ZM6.33328 11.0001C3.75595 11.0001 1.66661 8.9108 1.66661 6.33347C1.66661 3.75614 3.75595 1.6668 6.33328 1.6668C8.91061 1.6668 10.9999 3.75614 10.9999 6.33347C10.9999 7.57115 10.5083 8.75813 9.63311 9.6333C8.75794 10.5085 7.57096 11.0001 6.33328 11.0001Z" fill="#DE1362"/>
</svg>
